<svg id="visual" viewBox="0 0 900 600" width="900" height="600" xmlns="http://www.w3.org/2000/svg" xmlns:xlink="http://www.w3.org/1999/xlink" version="1.1"><rect width="900" height="600" fill="#000000"></rect><g><g transform="translate(844 105)"><path d="M0 -123.7L107.1 -61.8L107.1 61.8L0 123.7L-107.1 61.8L-107.1 -61.8Z" fill="none" stroke="#9b51e0" stroke-width="5"></path></g><g transform="translate(471 343)"><path d="M0 -59L51.1 -29.5L51.1 29.5L0 59L-51.1 29.5L-51.1 -29.5Z" fill="none" stroke="#9b51e0" stroke-width="5"></path></g><g transform="translate(254 154)"><path d="M0 -111L96.1 -55.5L96.1 55.5L0 111L-96.1 55.5L-96.1 -55.5Z" fill="none" stroke="#9b51e0" stroke-width="5"></path></g><g transform="translate(641 574)"><path d="M0 -122L105.7 -61L105.7 61L0 122L-105.7 61L-105.7 -61Z" stroke="#9b51e0" fill="none" stroke-width="5"></path></g><g transform="translate(4 81)"><path d="M0 -109L94.4 -54.5L94.4 54.5L0 109L-94.4 54.5L-94.4 -54.5Z" stroke="#9b51e0" fill="none" stroke-width="5"></path></g><g transform="translate(21 457)"><path d="M0 -88L76.2 -44L76.2 44L0 88L-76.2 44L-76.2 -44Z" stroke="#9b51e0" fill="none" stroke-width="5"></path></g><g transform="translate(290 553)"><path d="M0 -103L89.2 -51.5L89.2 51.5L0 103L-89.2 51.5L-89.2 -51.5Z" stroke="#9b51e0" fill="none" stroke-width="5"></path></g><g transform="translate(859 353)"><path d="M0 -60L52 -30L52 30L0 60L-52 30L-52 -30Z" stroke="#9b51e0" fill="none" stroke-width="5"></path></g><g transform="translate(550 43)"><path d="M0 -68L58.9 -34L58.9 34L0 68L-58.9 34L-58.9 -34Z" stroke="#9b51e0" fill="none" stroke-width="5"></path></g></g></svg>